<?xml version="1.0" encoding="UTF-8"?><svg id="a" xmlns="http://www.w3.org/2000/svg" width="140.906" height="28" viewBox="0 0 140.906 28"><defs><style>.b{fill:#313131;}.c{fill:#51b3f4;}</style></defs><path class="b" d="M9.753,27.306H2.711L7.189,2.546h7.042l-4.478,24.76Z"/><path class="b" d="M30.194,7.675c1.902,0,3.382.643,4.442,1.928,1.083,1.286,1.444,2.918,1.083,4.898l-2.311,12.804h-6.717l1.986-10.876c.169-.874.036-1.543-.397-2.006-.409-.488-.999-.733-1.77-.733-.722,0-1.372.244-1.95.733-.554.489-.903,1.144-1.047,1.967l-1.986,10.915h-6.717l3.503-19.168h6.356l-.036.231-.433,2.276c.746-.926,1.649-1.646,2.708-2.16,1.059-.54,2.154-.81,3.286-.81Z"/><path class="b" d="M47.158,7.559c2.624,0,4.803.604,6.536,1.813l-2.347,4.242c-1.011-.771-2.191-1.157-3.539-1.157-1.637,0-2.456.463-2.456,1.388,0,.617.482,1.067,1.445,1.35.698.231,1.155.373,1.372.424,3.009.874,4.514,2.713,4.514,5.515,0,1.928-.746,3.535-2.239,4.821-1.492,1.286-3.623,1.928-6.392,1.928-1.444,0-2.816-.231-4.116-.694-1.3-.463-2.348-1.041-3.142-1.736l2.492-4.397c1.179,1.234,2.648,1.864,4.405,1.89,1.758.026,2.636-.489,2.636-1.543,0-.668-.517-1.17-1.552-1.504-.169-.051-.434-.128-.795-.231-.361-.128-.638-.218-.83-.27-2.769-.9-4.153-2.661-4.153-5.284,0-2.006.758-3.6,2.275-4.782,1.516-1.183,3.479-1.774,5.886-1.774Z"/><path class="b" d="M66.042,8.138h3.395l-.867,4.86h-3.395l-2.6,14.309h-6.68l2.6-14.309h-2.528l.903-4.86h2.491l.939-4.975h6.681l-.939,4.975Z"/><path class="b" d="M77.059,0c.939,0,1.685.283,2.239.848.553.566.83,1.221.83,1.967,0,.977-.349,1.8-1.047,2.468-.674.643-1.601.964-2.781.964-.914,0-1.661-.283-2.238-.848-.554-.566-.831-1.221-.831-1.967,0-.977.337-1.787,1.011-2.43.698-.668,1.637-1.003,2.817-1.003ZM75.65,27.306h-6.716l3.466-19.168h6.717l-3.467,19.168Z"/><path class="b" d="M92.029,7.559c2.576,0,4.658.797,6.247,2.391,1.613,1.568,2.42,3.702,2.42,6.402,0,1.311-.193,2.494-.578,3.548h-12.748c.049.874.398,1.594,1.048,2.16s1.528.849,2.636.849c1.613,0,3.129-.579,4.55-1.736l2.419,4.049c-2.07,1.851-4.634,2.777-7.691,2.777-2.986,0-5.285-.874-6.898-2.623-1.589-1.774-2.383-4.011-2.383-6.711,0-3.188,1.011-5.837,3.033-7.945,2.047-2.108,4.695-3.163,7.945-3.163ZM91.776,12.419c-1.035,0-1.902.334-2.6,1.003-.698.668-1.132,1.453-1.3,2.353h6.717c.144-1.028-.06-1.838-.614-2.43-.53-.617-1.264-.926-2.203-.926Z"/><path class="b" d="M117.765,7.675c1.902,0,3.382.643,4.442,1.928,1.083,1.286,1.444,2.918,1.083,4.898l-2.311,12.804h-6.717l1.986-10.876c.169-.874.036-1.543-.397-2.006-.409-.488-.999-.733-1.77-.733-.722,0-1.372.244-1.95.733-.553.489-.902,1.144-1.047,1.967l-1.986,10.915h-6.717l3.503-19.168h6.356l-.036.231-.434,2.276c.747-.926,1.649-1.646,2.709-2.16,1.059-.54,2.154-.81,3.286-.81Z"/><path class="b" d="M136.607,8.138h3.394l-.866,4.86h-3.395l-2.6,14.309h-6.681l2.6-14.309h-2.527l.902-4.86h2.492l.939-4.975h6.681l-.939,4.975Z"/><path class="c" d="M9.032,9.935L0,4.516v10.387l9.032-4.968Z"/><path class="c" d="M131.874,19.418l9.032,5.419v-10.387l-9.032,4.968Z"/></svg>